<svg width="140" height="48" viewBox="0 0 140 48" fill="none" xmlns="http://www.w3.org/2000/svg">
  <!-- Fundo com gradiente -->
  <defs>
    <linearGradient id="bgGradient" x1="0%" y1="0%" x2="100%" y2="100%">
      <stop offset="0%" style="stop-color:#25D366;stop-opacity:1" />
      <stop offset="100%" style="stop-color:#128C7E;stop-opacity:1" />
    </linearGradient>
    <linearGradient id="textGradient" x1="0%" y1="0%" x2="100%" y2="0%">
      <stop offset="0%" style="stop-color:#ffffff;stop-opacity:1" />
      <stop offset="100%" style="stop-color:#f0f9f0;stop-opacity:1" />
    </linearGradient>
  </defs>
  
  <!-- Fundo arredondado -->
  <rect width="140" height="48" rx="12" fill="url(#bgGradient)"/>
  
  <!-- Ícone do WhatsApp estilizado -->
  <g transform="translate(12, 12)">
    <circle cx="12" cy="12" r="11" fill="rgba(255,255,255,0.2)"/>
    <circle cx="12" cy="12" r="9" fill="white"/>
    <path d="M12 4c4.4 0 8 3.6 8 8 0 1.4-.4 2.8-1 4l1 4-4-1c-1.2.6-2.6 1-4 1-4.4 0-8-3.6-8-8s3.6-8 8-8zm0 2c-3.3 0-6 2.7-6 6s2.7 6 6 6c1 0 2-.3 2.8-.8l.2-.1 2.4.6-.6-2.4.1-.2c.5-.8.8-1.8.8-2.8 0-3.3-2.7-6-6-6z" fill="#25D366"/>
    <circle cx="9" cy="11" r="0.8" fill="#25D366"/>
    <circle cx="12" cy="11" r="0.8" fill="#25D366"/>
    <circle cx="15" cy="11" r="0.8" fill="#25D366"/>
  </g>
  
  <!-- Texto "Salvô" -->
  <text x="42" y="32" font-family="Poppins, sans-serif" font-size="20" font-weight="700" fill="url(#textGradient)">Salvô</text>
</svg>
